<svg width="182" height="57" viewBox="0 0 182 57" fill="none" xmlns="http://www.w3.org/2000/svg">
<path d="M137.799 22.1254H141.479V54.7845H137.793L137.799 22.1254Z" fill="#666766"/>
<path d="M147.78 22.1254H159.122C169.383 22.1254 176.474 29.1697 176.474 38.3599V38.455C176.474 47.6452 169.383 54.7845 159.122 54.7845H147.78V22.1254ZM159.122 51.3783C167.379 51.3783 172.652 45.7786 172.652 38.5441V38.455C172.652 31.2205 167.379 25.5316 159.122 25.5316H151.466V51.3783H159.122Z" fill="#666766"/>
<path d="M118.563 22.3929L131.593 11.2351V0.386394H92.1398V12.638H113.047L100.462 23.9504L102.644 31.8328H109.046C114.741 31.8328 117.963 33.9372 117.963 37.4504V37.6049C117.963 40.9636 115.234 43.1452 110.942 43.1452C105.949 43.1452 101.811 40.8803 97.9119 36.9035L93.3881 42.2535V33.0812H86.4212V0H71.126L43.5851 32.7899V0H28.2958L0 33.7053L2.49669 44.4054H28.9497V55.0164H43.6148V44.3935H59.6174L63.1841 34.7872L56.0507 36.4279L71.768 17.5303V36.4279L67.0421 34.7872L63.517 44.3935H71.8393V55.0045H86.5103V44.3935H91.6642L89.1675 47.2588C94.4106 52.6088 101.603 56.0983 111.632 56.0983C123.806 56.0983 132.699 48.9649 132.699 37.92V37.7595C132.687 28.4801 126.368 24.1109 118.563 22.3929ZM28.92 33.1584H15.8897L28.92 17.4768V33.1584Z" fill="#00B2E3"/>
<path d="M175.363 25.062L175.779 25.0263C175.794 25.1742 175.842 25.3167 175.922 25.4425C176.008 25.5594 176.125 25.6499 176.26 25.704C176.424 25.7714 176.6 25.8038 176.778 25.7991C176.929 25.8015 177.08 25.7774 177.223 25.7278C177.338 25.6872 177.439 25.6151 177.515 25.5197C177.578 25.4358 177.611 25.3334 177.61 25.2285C177.612 25.1298 177.581 25.0334 177.521 24.955C177.439 24.8619 177.335 24.7921 177.217 24.7529C177.023 24.688 176.824 24.6344 176.623 24.5924C176.4 24.5452 176.182 24.4735 175.975 24.3784C175.828 24.3078 175.703 24.1989 175.612 24.0633C175.533 23.9392 175.492 23.7946 175.494 23.6472C175.493 23.4771 175.545 23.3109 175.642 23.1717C175.743 23.0166 175.891 22.8979 176.064 22.8328C176.253 22.757 176.455 22.7186 176.659 22.7199C176.884 22.7164 177.108 22.7568 177.319 22.8388C177.496 22.9133 177.649 23.037 177.758 23.1954C177.859 23.3541 177.917 23.5366 177.925 23.7245L177.497 23.7602C177.492 23.6671 177.468 23.576 177.427 23.4923C177.387 23.4086 177.329 23.3339 177.259 23.2727C177.078 23.1684 176.873 23.1134 176.665 23.1134C176.456 23.1134 176.251 23.1684 176.07 23.2727C176.013 23.3133 175.966 23.3667 175.933 23.4286C175.9 23.4905 175.882 23.5592 175.88 23.6294C175.88 23.6853 175.891 23.7407 175.914 23.7919C175.936 23.8431 175.969 23.889 176.011 23.9266C176.217 24.0503 176.445 24.1331 176.682 24.1703C176.939 24.216 177.19 24.2877 177.431 24.3843C177.604 24.4557 177.754 24.5729 177.865 24.7232C177.959 24.8662 178.006 25.034 178.002 25.2047C178.004 25.3841 177.952 25.5599 177.854 25.71C177.745 25.8748 177.59 26.0033 177.408 26.0785C177.204 26.1711 176.983 26.2178 176.76 26.2152C176.498 26.2219 176.237 26.1754 175.993 26.0785C175.796 25.9973 175.628 25.8584 175.511 25.6802C175.403 25.4928 175.352 25.2781 175.363 25.062Z" fill="#231F20"/>
<path d="M178.656 26.1617V22.7972H179.327L180.124 25.175C180.201 25.3949 180.255 25.5613 180.29 25.6684C180.326 25.5495 180.386 25.3711 180.469 25.1333L181.271 22.7912H181.866V26.1558H181.438V23.3441L180.457 26.1617H180.059L179.09 23.2787V26.1439L178.656 26.1617Z" fill="#231F20"/>
</svg>
