<svg width="128" height="40" viewBox="0 0 128 40" fill="none" xmlns="http://www.w3.org/2000/svg">
<path d="M96.9854 15.7762H99.5752V39.0633H96.9812L96.9854 15.7762Z" fill="white"/>
<path d="M104.01 15.7762H111.993C119.214 15.7762 124.205 20.799 124.205 27.352V27.4198C124.205 33.9727 119.214 39.0633 111.993 39.0633H104.01V15.7762ZM111.993 36.6346C117.804 36.6346 121.515 32.6418 121.515 27.4834V27.4198C121.515 22.2614 117.804 18.205 111.993 18.205H106.604V36.6346H111.993Z" fill="white"/>
<path d="M83.4464 15.9669L92.6174 8.01102V0.275512H64.8493V9.01134H79.5638L70.7067 17.0775L72.2421 22.6979H76.7481C80.7562 22.6979 83.0239 24.1984 83.0239 26.7034V26.8136C83.0239 29.2084 81.1035 30.764 78.0828 30.764C74.5684 30.764 71.6564 29.1491 68.9118 26.3134L65.7279 30.1282V23.588H60.8245V0H50.0595L30.6758 23.3803V0H19.915L0 24.0331L1.75721 31.6626H20.3752V39.2286H30.6967V31.6541H41.9596L44.4699 24.8045L39.4493 25.9744L50.5113 12.4997V25.9744L47.1852 24.8045L44.7042 31.6541H50.5616V39.2201H60.8872V31.6541H64.5146L62.7574 33.6971C66.4475 37.5119 71.51 40 78.5681 40C87.1366 40 93.3956 34.9136 93.3956 27.0382V26.9238C93.3872 20.3073 88.9398 17.1919 83.4464 15.9669ZM20.3543 23.6431H11.1834L20.3543 12.4616V23.6431Z" fill="white"/>
<path d="M123.423 17.8701L123.716 17.8446C123.726 17.9501 123.76 18.0517 123.816 18.1413C123.877 18.2247 123.96 18.2893 124.055 18.3278C124.17 18.3759 124.294 18.399 124.419 18.3957C124.525 18.3973 124.632 18.3801 124.732 18.3448C124.813 18.3158 124.884 18.2644 124.937 18.1964C124.982 18.1366 125.005 18.0636 125.004 17.9887C125.006 17.9184 124.984 17.8496 124.942 17.7938C124.884 17.7274 124.811 17.6776 124.728 17.6497C124.591 17.6034 124.451 17.5652 124.31 17.5352C124.153 17.5016 124 17.4504 123.854 17.3826C123.75 17.3323 123.662 17.2547 123.599 17.158C123.543 17.0695 123.514 16.9663 123.515 16.8613C123.514 16.74 123.551 16.6215 123.62 16.5222C123.691 16.4116 123.795 16.327 123.917 16.2806C124.05 16.2265 124.192 16.1991 124.335 16.2C124.494 16.1976 124.651 16.2264 124.799 16.2848C124.924 16.338 125.032 16.4262 125.109 16.5391C125.18 16.6523 125.22 16.7824 125.226 16.9164L124.925 16.9418C124.921 16.8755 124.905 16.8105 124.876 16.7508C124.847 16.6911 124.807 16.6379 124.758 16.5942C124.63 16.5198 124.486 16.4807 124.339 16.4807C124.192 16.4807 124.048 16.5198 123.921 16.5942C123.881 16.6232 123.847 16.6612 123.824 16.7054C123.801 16.7495 123.788 16.7985 123.787 16.8485C123.787 16.8884 123.795 16.9279 123.811 16.9645C123.827 17.001 123.85 17.0337 123.879 17.0605C124.024 17.1487 124.185 17.2077 124.352 17.2343C124.532 17.2668 124.709 17.318 124.879 17.3869C125 17.4378 125.106 17.5213 125.184 17.6285C125.25 17.7304 125.283 17.8501 125.281 17.9718C125.281 18.0997 125.245 18.2251 125.176 18.3321C125.1 18.4496 124.99 18.5412 124.862 18.5949C124.719 18.6609 124.563 18.6942 124.406 18.6924C124.222 18.6971 124.038 18.6639 123.866 18.5949C123.728 18.5369 123.61 18.4379 123.527 18.3109C123.451 18.1772 123.415 18.0241 123.423 17.8701V17.8701Z" fill="white"/>
<path d="M125.741 18.6541V16.255H126.213L126.774 17.9505C126.829 18.1073 126.866 18.226 126.891 18.3023C126.916 18.2175 126.958 18.0904 127.017 17.9208L127.582 16.2508H128V18.6499H127.699V16.645L127.008 18.6541H126.728L126.046 16.5984V18.6414L125.741 18.6541Z" fill="white"/>
</svg>
